<?xml version="1.0" standalone="no"?>
<!DOCTYPE svg PUBLIC "-//W3C//DTD SVG 20010904//EN"
 "http://www.w3.org/TR/2001/REC-SVG-20010904/DTD/svg10.dtd">
<svg version="1.0" xmlns="http://www.w3.org/2000/svg"
 width="590.000000pt" height="567.000000pt" viewBox="0 0 590.000000 567.000000"
 preserveAspectRatio="xMidYMid meet">

<g transform="translate(0.000000,567.000000) scale(0.100000,-0.100000)"
fill="#000000" stroke="none">
<path d="M2655 5589 c-22 -6 -78 -19 -125 -30 -186 -45 -462 -155 -631 -254
-412 -238 -783 -635 -959 -1024 -112 -248 -164 -456 -186 -748 -11 -148 27
-215 128 -229 40 -6 46 -3 77 27 61 62 65 73 72 203 9 161 62 442 98 526 16
36 32 76 36 90 5 14 33 72 64 130 92 171 256 370 439 532 311 276 582 415 956
489 82 17 157 34 167 40 34 18 46 167 18 225 -13 26 -19 29 -64 31 -28 1 -68
-3 -90 -8z"/>
<path d="M3096 5559 c-34 -41 -36 -115 -3 -179 l22 -45 100 -23 c341 -80 606
-198 850 -380 90 -67 261 -229 252 -238 -3 -3 -49 0 -104 6 -115 14 -143 7
-173 -42 -25 -42 -25 -94 0 -136 37 -60 99 -84 375 -146 88 -20 188 -43 222
-52 74 -20 105 -14 123 23 28 61 41 577 16 638 -17 39 -58 55 -143 55 -47 0
-54 -3 -66 -27 -8 -16 -17 -46 -21 -68 -17 -101 -4 -104 -139 30 -157 154
-233 216 -381 305 -171 102 -302 163 -488 225 -179 59 -291 85 -367 85 -43 0
-53 -4 -75 -31z"/>
<path d="M2851 4994 c-30 -8 -77 -27 -105 -42 -66 -35 -177 -145 -204 -203
-25 -52 -47 -151 -39 -173 9 -22 83 -39 156 -34 59 4 66 7 100 44 20 22 43 50
51 63 21 32 68 58 124 71 43 9 54 8 93 -11 77 -37 122 -138 93 -208 -13 -33
-66 -72 -123 -90 -47 -16 -152 -86 -163 -109 -5 -9 -9 -100 -9 -201 l-1 -184
-89 -39 c-217 -95 -402 -181 -718 -334 -187 -90 -459 -221 -605 -291 -290
-140 -350 -181 -393 -271 -33 -66 -32 -161 1 -220 24 -43 82 -87 155 -118 36
-15 170 -16 1623 -15 871 1 1581 -2 1579 -6 -7 -11 223 -9 247 2 11 5 21 3 26
-5 5 -8 10 -9 14 -2 4 6 13 9 21 6 8 -4 18 1 21 10 3 9 9 14 14 11 4 -2 16 3
26 11 10 9 12 12 4 8 -8 -4 6 15 31 43 65 69 82 107 83 178 1 54 -3 66 -38
118 -62 93 -115 132 -306 224 -96 47 -310 152 -475 233 -165 82 -367 180 -450
218 -389 180 -508 237 -511 247 -2 5 0 50 5 99 6 63 14 93 25 101 9 7 16 16
16 20 0 4 33 38 73 75 103 96 197 252 197 326 0 116 -46 227 -130 318 -116
123 -268 171 -419 130z m239 -1399 c58 -25 131 -60 162 -76 31 -16 61 -29 67
-29 14 0 488 -226 631 -301 69 -36 209 -106 311 -156 102 -50 189 -95 192
-101 12 -18 -368 -23 -1658 -19 -839 3 -1270 8 -1290 15 -21 7 -24 11 -11 11
19 1 85 40 114 68 6 6 22 15 35 19 26 8 299 141 372 182 45 24 134 66 295 140
30 14 114 53 185 87 72 34 146 68 165 75 19 7 46 21 60 30 14 10 36 21 50 25
61 19 159 68 153 78 -12 20 63 -1 167 -48z"/>
<path d="M4845 3939 c-43 -38 -43 -47 -10 -206 16 -79 24 -150 24 -206 -1 -72
2 -91 22 -128 29 -51 109 -109 151 -109 42 0 102 61 118 120 15 54 1 195 -36
357 -39 174 -64 203 -173 203 -53 0 -64 -4 -96 -31z"/>
<path d="M4973 2411 c-61 -29 -98 -88 -98 -160 1 -65 21 -106 70 -140 55 -37
103 -44 165 -21 126 46 164 156 89 260 -34 47 -70 67 -135 75 -37 4 -59 1 -91
-14z m126 -45 c45 -16 72 -53 78 -107 4 -34 1 -50 -14 -68 -25 -31 -40 -21
-54 35 -10 37 -15 44 -35 44 -25 0 -32 14 -14 25 6 4 17 1 25 -5 21 -18 47 -4
43 22 -2 17 -12 24 -38 29 -19 4 -44 10 -56 14 -33 10 -44 -15 -47 -108 -3
-94 -10 -111 -32 -81 -20 27 -28 94 -15 129 29 76 81 99 159 71z m-1 -223 c-6
-7 -26 -13 -45 -13 -32 0 -35 2 -29 23 3 12 6 32 6 45 0 22 1 22 39 -10 29
-24 37 -36 29 -45z"/>
<path d="M1288 2397 c-56 -18 -128 -73 -128 -97 0 -86 208 -333 425 -506 166
-132 227 -171 418 -268 211 -108 373 -164 557 -195 69 -12 148 -26 175 -31
100 -18 235 -22 352 -10 122 13 396 67 471 94 23 8 42 13 42 9 0 -3 6 -1 13 4
6 6 55 24 107 42 52 17 120 46 150 64 30 18 80 43 110 56 30 13 64 32 76 42
11 10 24 19 29 19 4 0 26 14 49 30 23 17 73 54 111 82 93 69 283 262 373 378
23 30 56 72 73 92 42 49 41 83 -2 120 -37 30 -127 68 -163 68 -28 0 -49 -18
-102 -90 -90 -120 -286 -299 -474 -432 -204 -144 -537 -256 -857 -289 -134
-14 -352 -2 -507 27 -418 79 -868 362 -1137 714 -71 93 -87 101 -161 77z"/>
<path d="M1988 877 c-90 -34 -161 -121 -174 -214 -12 -97 53 -181 174 -225 26
-9 61 -17 77 -18 43 0 107 -19 128 -38 28 -25 22 -67 -15 -94 -47 -33 -123
-31 -205 6 l-62 28 -51 -42 c-27 -23 -50 -49 -50 -58 0 -21 94 -87 151 -107
49 -17 204 -20 246 -4 40 15 142 117 164 164 36 77 15 173 -49 227 -37 31
-112 61 -197 78 -33 7 -77 21 -98 32 -52 26 -49 63 8 95 58 33 105 30 180 -12
l62 -35 49 33 c27 19 50 41 52 50 5 25 -52 81 -114 112 -49 25 -72 30 -148 32
-60 2 -104 -1 -128 -10z"/>
<path d="M2636 863 c-3 -16 -8 -58 -12 -95 l-6 -68 115 0 115 0 6 -31 c3 -17
6 -152 6 -300 l0 -269 80 0 80 0 2 183 c2 100 1 235 0 301 l-4 118 122 -3 122
-4 -6 44 c-3 24 -6 65 -6 91 l0 47 -297 2 c-163 1 -300 4 -304 7 -4 2 -10 -8
-13 -23z"/>
<path d="M61 490 l-2 -385 85 -2 c85 -3 86 -2 92 23 4 14 4 66 2 115 l-5 89
52 0 53 0 48 -67 c25 -37 58 -89 73 -115 l26 -47 95 6 c52 3 96 7 98 8 5 4
-97 151 -125 183 -33 36 -39 63 -17 75 33 18 84 80 111 135 22 44 25 62 20
108 -11 107 -90 194 -210 233 -49 16 -96 20 -227 23 l-166 4 -3 -386z m375
185 c13 -8 30 -28 39 -45 14 -26 14 -33 -1 -69 -24 -60 -48 -71 -155 -71 l-92
0 7 46 c3 26 6 74 6 107 l0 60 86 -6 c52 -4 96 -12 110 -22z"/>
<path d="M975 865 c-2 -5 -6 -181 -9 -389 l-6 -379 98 6 c53 4 179 7 280 7
l182 0 0 84 0 83 -99 7 c-54 4 -129 7 -167 6 -120 -3 -109 -9 -106 66 l4 67
154 -5 155 -6 -3 72 -3 71 -157 3 -158 3 0 63 0 63 38 7 c20 3 103 6 185 6
l147 0 0 29 c0 15 -3 56 -7 90 l-6 62 -260 -3 c-162 -2 -261 -7 -262 -13z"/>
<path d="M3445 855 c8 -11 31 -47 51 -80 20 -33 54 -82 74 -110 21 -27 56 -83
79 -123 23 -41 50 -85 61 -99 18 -23 20 -41 20 -157 0 -185 -4 -176 93 -176
l80 0 -9 98 c-14 156 -11 205 13 229 12 12 31 49 44 83 12 33 29 66 38 73 9 7
52 65 94 130 43 64 82 117 87 117 6 0 10 6 10 13 0 8 -22 13 -68 16 -132 8
-123 10 -151 -36 -14 -23 -53 -81 -85 -130 -32 -48 -61 -96 -64 -106 -7 -29
-25 -14 -47 40 -23 57 -81 151 -124 203 l-29 35 -91 0 c-88 0 -90 0 -76 -20z"/>
<path d="M4470 495 l0 -385 254 0 254 0 -4 93 -4 92 -158 3 -159 2 -5 276 c-3
151 -9 279 -14 283 -5 5 -44 11 -86 15 l-78 6 0 -385z"/>
<path d="M5266 493 c4 -214 7 -388 8 -388 0 0 124 1 274 3 l272 4 0 84 c0 46
-3 84 -7 84 -5 1 -90 1 -190 2 l-183 1 0 62 0 63 57 7 c32 4 109 5 173 3 l115
-3 -2 65 c-1 36 -2 69 -2 73 -1 5 -29 7 -63 6 -35 -2 -111 -2 -170 -1 l-108 2
0 69 0 68 183 7 c100 4 186 11 190 15 4 4 7 41 5 82 l-3 74 -278 3 -277 2 6
-387z"/>
</g>
</svg>
